<svg width="36" height="36" viewBox="0 0 36 36" fill="none" xmlns="http://www.w3.org/2000/svg">
<path fill-rule="evenodd" clip-rule="evenodd" d="M5.40002 9.00001C5.40002 8.0059 6.20591 7.20001 7.20002 7.20001H28.8C29.7941 7.20001 30.6 8.0059 30.6 9.00001C30.6 9.99412 29.7941 10.8 28.8 10.8H7.20002C6.20591 10.8 5.40002 9.99412 5.40002 9.00001Z" fill="white"/>
<path fill-rule="evenodd" clip-rule="evenodd" d="M5.40002 18C5.40002 17.0059 6.20591 16.2 7.20002 16.2H18C18.9941 16.2 19.8 17.0059 19.8 18C19.8 18.9941 18.9941 19.8 18 19.8H7.20002C6.20591 19.8 5.40002 18.9941 5.40002 18Z" fill="white"/>
<path fill-rule="evenodd" clip-rule="evenodd" d="M5.40002 27C5.40002 26.0059 6.20591 25.2 7.20002 25.2H28.8C29.7941 25.2 30.6 26.0059 30.6 27C30.6 27.9941 29.7941 28.8 28.8 28.8H7.20002C6.20591 28.8 5.40002 27.9941 5.40002 27Z" fill="white"/>
</svg>
